/* XPM */
static char *c55c387dc19141b7a57762169a14313c5ezSIsheU5kkm9k1[] = {
/* columns rows colors chars-per-pixel */
"64 64 174 2 ",
"   c None",
".  c #1D1D15",
"X  c #24240F",
"o  c #252510",
"O  c #2C2C11",
"+  c #27271D",
"@  c #2A2A1C",
"#  c #333315",
"$  c #3B3B17",
"%  c #363619",
"&  c #3C3C1B",
"*  c #262625",
"=  c #292922",
"-  c #2F2F2F",
";  c #343425",
":  c #3D3C23",
">  c #32322E",
",  c #3B3B2B",
"<  c #3A3A35",
"1  c #43431A",
"2  c #48481C",
"3  c #454523",
"4  c #4A4A25",
"5  c #45452C",
"6  c #4D4C2A",
"7  c #504F23",
"8  c #504F2D",
"9  c #535225",
"0  c #52522D",
"q  c #5C5B2C",
"w  c #464633",
"e  c #4B4B35",
"r  c #41413C",
"t  c #4F4F39",
"y  c #504F39",
"u  c #555532",
"i  c #585733",
"p  c #5A5934",
"a  c #54543A",
"s  c #58573C",
"d  c #5B5B3B",
"f  c #605F3A",
"g  c #6A6A2E",
"h  c #636330",
"j  c #686735",
"k  c #66653E",
"l  c #68673F",
"z  c #6A693C",
"x  c #706F3E",
"c  c #757436",
"v  c #73733E",
"b  c #78773E",
"n  c #78783B",
"m  c #5E5E43",
"M  c #605F43",
"N  c #636243",
"B  c #686740",
"V  c #6A6A42",
"C  c #676748",
"Z  c #6C6C4A",
"A  c #706F45",
"S  c #747443",
"D  c #7B7A42",
"F  c #74734C",
"G  c #7B7B4B",
"H  c #767651",
"J  c #787751",
"K  c #7B7B53",
"L  c #7D7D5D",
"P  c #7F7F60",
"I  c #807F42",
"U  c #807F4A",
"Y  c #807F51",
"T  c #807F61",
"R  c #8B8B3E",
"E  c #828244",
"W  c #888743",
"Q  c #8B8A45",
"!  c #84844D",
"~  c #88874F",
"^  c #8A8A4F",
"/  c #908F46",
"(  c #908F49",
")  c #93934D",
"_  c #989748",
"`  c #9C9B4A",
"'  c #838354",
"]  c #888754",
"[  c #8C8C52",
"{  c #868659",
"}  c #88875A",
"|  c #8C8C5B",
" . c #908F5C",
".. c #939352",
"X. c #989754",
"o. c #9E9D54",
"O. c #92925E",
"+. c #9A9A5D",
"@. c #A09F4D",
"#. c #A09F55",
"$. c #A09F58",
"%. c #A9A84F",
"&. c #A2A155",
"*. c #A8A756",
"=. c #AAA956",
"-. c #A3A25A",
";. c #ADAD58",
":. c #B0AF59",
">. c #B2B155",
",. c #B6B55A",
"<. c #B8B75C",
"1. c #BBBA5D",
"2. c #828262",
"3. c #8B8B64",
"4. c #8A8A68",
"5. c #959562",
"6. c #9C9C64",
"7. c #919168",
"8. c #9A9A6D",
"9. c #919171",
"0. c #9C9C75",
"q. c #A3A365",
"w. c #A8A765",
"e. c #AAA965",
"r. c #A5A56A",
"t. c #ABAA6C",
"y. c #B0AF6F",
"u. c #B4B363",
"i. c #B8B764",
"p. c #BABA63",
"a. c #B2B26D",
"s. c #BDBC6A",
"d. c #ACAC72",
"f. c #B4B371",
"g. c #B8B772",
"h. c #BEBD75",
"j. c #BBBB73",
"k. c #C0BF5D",
"l. c #C0BF61",
"z. c #C0BF74",
"x. c #C4C35E",
"c. c #C2C15D",
"v. c #C8C75F",
"b. c #C4C363",
"n. c #CAC960",
"m. c #CCCB60",
"M. c #CDCC60",
"N. c #CDCC61",
"B. c #C1C06C",
"V. c #CBCA6D",
"C. c #D0CF65",
"Z. c #D3D26E",
"A. c #C3C275",
"S. c #C2C274",
"D. c #C3C379",
"F. c #C4C379",
"G. c #C5C47A",
"H. c #C4C379",
"J. c #C8C779",
"K. c #C9C97D",
"L. c #CDCC7D",
"P. c #D5D472",
"I. c #D2D27D",
"U. c #DAD97E",
"Y. c #DAD97E",
"T. c #D0CF80",
"R. c #D5D482",
"E. c #D4D381",
"W. c #D8D782",
"Q. c #DBDA85",
"!. c #DCDB84",
"~. c #DEDD87",
"^. c #DEDD87",
"/. c #DCDB85",
/* pixels */
"                                            ; 5 e m C e t ,                                                                     ",
"                                          m 6.R.~.~.W.n.>.) E N N                                                               ",
"                                          a 6.J K O.5.o...~ ..G N ,                                                             ",
"                      ; t Z J J H N t w ; t h.~.~.A.<.,.,.n.n.+.N e ; , w e , ,                                                 ",
"                      H H.~.~.~.C.v.:.` G m K Y O.[ ^ ^ ^ ~ F N m 6.j.G.W.U.1.o.W Z k d                                         ",
"                       .5.K H | [ ^ ^ ^ [ C ' H Y  .5.X.[ X.&.Z m ' K 5.t.t.*.&.#.#.F m e                                       ",
"                      ' R.~./.Z.m.m.m.m.i.C L.!.G.t.-.#.o.,.1.q.N J.~.F.t.-.o.&.<.k.q.k N m                                     ",
"                      F J J [ [ ! F F G B m C 5.t.$.#.#.&.) ^ C m H O.t.-.&.o.&.[ ^ C m C m                                     ",
"                      ' K K 5.r.-.o.-...[ C | C m H K F F ~ [ G m H K K O.O.~ [ &.&.Z N N m w e e F C e e ,                     ",
"                       .~.~.H.s.,.,.,.m.i.F z.^.K.j.o.o.=.,.x.w.N I.K.t.5.[ ^ ^ o.=.-.k m Z f.~.~.~.Z.c.=.) S k m               ",
"                      m Z 5.+.X.^ ^ ^ U Z m H { q.-.o.-.X.~ ~ Z m H t.A.s.,.<.<.*.#.F m m K } J } O.O.X.^ ~ [ F m               ",
"                      { { C F F ] ^ F ! ..C K K ' | O.[ o.o.o.S m H m m Z G F F ^ [ F M m F R.~.Q.s.,.,.1.m.b.' N               ",
"                      ' W.~.E.s.,.,.1.m.p.H G.T.y.t.[ [ o.o.;.w.N F.T.f.d.+.[ #.o.;.e.z m C J | | ^ ^ ^ ^ G Z N s               ",
"                      C H } [ ] ^ [ ^ F Z m F q.j.p.,.,.;.o.o.H N Z 6.j.i.,.<.*.&.X.F m N H K J { O.O...^ o.) Z m               ",
"                      K H L ' C r.j.D.D.s.=.[ S k m m F ^ ^ U F m F J ' ' | ..#.#.&.S m m J ~.E.j.w.#.#.*.,.l.] N               ",
"                      | /.T.r.F H  .t.f.B.,.<.=.) N m ^ o.o.,.u.C J.g.6.| ' G [ ^ o.6.k m m K 6.w.&.&.#.o.] ! C m               ",
"            , w e e t m K r.-.K ^.L.f.t.&.#.#.>.<.] N ^ o.o...H m H g.L.P.M.x.,.<.;.{ m m F ' m N J H F U ~ [ F m               ",
"        t | H.E.~.Y.b.*.) S N C K r.t.=.#.#.#.#.' C C o.-.o.o.F N C m N m K [ ^ ! G G N m Z Q.~.H.a.o.o.,.<.b.[ N               ",
"        t | J | q.t.#.#.o.&.G C H K  .6.e.#.#.#.) V m G ^ [ &.-.C h.G.t.O.[ ^ ^ ) #.6.A m C H O.w.o.&.&.^ ^ G C m               ",
"        ; j.~.T.A.-.#.,.,.b.q.{ I.f.6. .[ ^ ~ o.-.' N ..,.,.=.] N Z t.G.B.<.,.,.,.*.} N m Z H Y J O.| X.o.o.o.B m               ",
"        w K } q.$.&.#.^ ^ ~ C m 5.h.A.b.,.,.,.;.X.Z m m m m F Z C F K K 5.O.^ ^ [ #.U N N F ~.G.t.t.^ ..#.#.,. .N               ",
"        t J H ' { O.X.&.#.&.F Z C m Z K K ! F ! ^ C m ! X.=.=.$.m O.} F N G ' [ ^ ~ O.V m m K t.S.,.,.,.&.#.[ Z m               ",
"        < K.E.f.t.[ ~ o.#.,.e.F R.h.r. .^ ^ ^ &.=.{ a z n D z d w f O.w.-.@.` @.>.,.+.N m C F m m m H ! ^ G ~ Z N               ",
"        5 Z 6.g.p.<.,.#.#...F m { f.S.p.,.<.<.` I a e V z x n k e a w w w e 5 w e s f m m Z R.L.g.t.&.&.&.*.1.O.B               ",
"        , J N N m H ' [ ^ ! H C K K Y O. .~ S D v e w d k b I U d G q.| ' V z z D D W k m m H r.y.1.;.o.#.&.^ Z m               ",
"        = g.Q.h.d.-.#.#.&.,.u.K G.r.O.K V d f z S B e x Q I D k e e Z f 6 5 5 5 5 s s e w m J J | | e.&.&.X.X.Z m               ",
"        , H 5.t.u.*.#.#.o.) H m 6.K.W.b.` ` ` Q E d w i d z z z e w 6 1 4 u 9 4 2 1 4 6 e w a.g.6.O.^ ^ ^ X.*.} B ;             ",
"        , H K '  .q.-.&...o.U N m m m m d p f z z t w a x n I ! f 6 6 H { 2.L F k p 4 1 1 w Z a.H.b.,.,.,.,.#.F m               ",
"        ; h.H.t.O.[ ^ ^ ) #.6.F L.r.F V d d k z D V e f I n n k 5 4 9.r.d.t.7.P F u u 4 1 1 6 t m m m m m Z S Z N e             ",
"        ; F t.G.V.p.,.,.<.&.{ m 5.+.w.o.` ` / Q E d t V D D D x 1 { d.d.t.d.t.P L k u 6 3 : 1 E r.t.[ ] ^ >.1.w.B ,             ",
"        , Z m m F H H F F ^ F C Z d N d M z z k z t w i z k x x 1 d.d.d.d.d.d.4.P F p 6 3 : & 1 e |  . .^ Z N C m ,             ",
"          a.T.y.q.| ^ ^ o.&.;.Z | F M V d p k z D k e z / Q Q S 1 6.f.d.d.d.d.9.P L k 0 : & $ $ 9 a.~.!.C.v.1.=.G m e           ",
"          C q.h.s.,.,.,.;.&.' e ! q.e.&.` _ ` _ Q N 6 a z k s l 1 O.f.d.d.d.0.2.P J B p 5 $ % # 1 0 F | [ ^ ^ ) | B m           ",
"        < Z H K | O.[ ^ X.o.S e e w s p d k p e i t w t z z v D 1 F 8.t.d.0.4.2.P F B d 6 % % # $ q s.C.M.v.v.x.+.m             ",
"          g.f.6.| F D F ^ ^ S t 6.O.' Z z z z v D F 6 a Q Q b h 4 k Z 3.4.2.2.P P C B k 0 3 # # # 1 k Y G F F ~ A m w           ",
"          F j.E.Y.N.v.v.1.&.S e d [ O.^ Q Q Q Q c q 1 1 1 1 @ @ i k z Z P P P P H B B k u 3 # O O 1 s } [ ^ ^ ) ' B s           ",
"          F N m m m m N S s s w m d N Z C 6 3 1 7 9 p z k d @ r @ u k z C H P L H N k B u 6 # # # $ W 1.N.n.v.M.w.N ,           ",
"          5.~.H.t.w.X.o.) E ! s +.K A 5 2 1 3 0 i S U [ ] D % < < + ; e d Z H F B B k z i 4 % # # 1 0 V F F F F S m s           ",
"          Z | t.s.<.=.o.D D k e B [ 9 2 4 4 8 6 p ! ' ] [  .k @ > - * + + : a B B k B z u 3 # O O $ 0 k ~ ~ U [ [ Z m           ",
"          C H K { 6.-.X.D D z e 4 1 3 6 6 0 0 8 k D ~ ] [  .S e @ = * * * + @ 6 f k B N u 1 # # # 1 X.&.%.v.N.N.w.B e           ",
"          6.L.t. . .G S z S D 0 1 4 6 6 8 0 0 p f k U [ [ ] A B d ; @ + + @ % c 2 u k f 6 # # # # 1 u p p Z G F Z d t           ",
"          N q.G.Y.C.c.Q Q E p 2 4 5 6 6 6 u f k k f N l S V k B z V N p i f 3 b x 1 q u 5 # # O $ 4 Z F D E ^ [ [ Z m           ",
"          C m m C A ' z k 6 1 3 4 6 4 8 f k k k k k k k l B k k V z A V V V 9 9 b x 1 3 & # # # 1 ..+.^ Q Q b.v.u.Z a           ",
"          } E.f.6. .S z j 2 3 4 5 4 8 k k k k k k k k k l k k l V V V V V Z f 2 q D q 1 & % % 1 3 Z V z z z W F A N m           ",
"          m 5.j.z.<.( W q 1 4 5 5 6 k k k k k k k k B l l l l B V z B B N f i 0 1 n j 1 1 & 1 q B a t d s p G ..[ C m           ",
"          C K K |  .V p 1 3 4 4 8 f k k k k k k k l B B B B B B B B B B z p u 0 4 1 @ $ 1 & 3 B w.r.e.^ Q Q c.v.i.S y           ",
"          O.j.6.| Z k 7 1 6 6 8 f l k B k k k k B B B B B B B B B z B z k u 0 0 4 & #       @ a d k z z z z F F N N t           ",
"          C t.E.Y.p._ 7 4 6 7 f k k k k k k l B B B B B B B B V B V V B B u 6 6 & % 1 X     . N m N N Z V v #.o.[ C m           ",
"          N m m N Z u 1 4 4 s k k k k k N l B B B B B V B B V B B V V B k i 6 3 # # $ #       F w.q.O.W n ) ,.x.p.S s           ",
"          ' F.r.5.H e 1 3 4 0 k f k k k l l B B B B V B B B B B V V z k k i 6 3 $ # $ 1       + m F G S D ^ ^ ^ F w             ",
"          m q.L.U.1.g 1 : 8 0 p p k k B l k B B B B B B B B B B B V B B N 0 8 3 # # # 1             . .                         ",
"          C K K H H 6 1 3 6 8 u i k k k k l B B B B B B k l B B z V B k k 0 6 : % # # 1                                         ",
"          { y.3.K Y u 1 3 5 0 i i k k B k B B l B B B B l l B B B B B k p 8 6 % # # & #                                         ",
"          a j.~.~.Z.R 1 3 4 4 0 u f k k B k B B l B B B l B B B B B k k d 8 4 $ # % 1                                           ",
"            ; a F F B 1 3 5 6 8 i i d f k k B k B B B B l B B B k z k k u 6 3 % # $ $                                           ",
"                      # 1 3 4 i p p p k k k k l B B B B B B B B k k k d 0 6 3 $ & 1                                             ",
"                        # 1 4 p p p f k k k k B V V B k B B B B k k k p 0 6 & & 1 o                                             ",
"                          O 1 4 0 p k k B B l V l k V V B z k V k k f u 0 0 & 1 o                                               ",
"                              # 1 4 0 k k z V B B l B k k V z k k k k 0 9 1 $                                                   ",
"                                  O 1 1 4 f k V B l B B z k Z z f p 7 1 & o                                                     ",
"                                        u 9 2 1 4 4 9 0 0 q 4 1 1 $ #                                                           ",
"                                                      O                                                                         ",
"                                                                                                                                ",
"                                                                                                                                "
};
