/* XPM */
static char *_4f3daa5a2f343c1c95dc3d783b5911foKWlbK4eUiV36frj[] = {
/* columns rows colors chars-per-pixel */
"96 96 7 1 ",
"  c None",
". c black",
"X c #2E0800",
"o c #5C2303",
"O c #F84D13",
"+ c #F96B2A",
"@ c #FC8C32",
/* pixels */
"                                                                                                ",
"                                                                                                ",
"                                                                                                ",
"                                                                                                ",
"                                                                                                ",
"                                O                             OO                                ",
"                              OOXOO    OOO   OO             OOXXOO                              ",
"                             OXXXXXO OOXXXO O.XOOO         OXXXXXXO                             ",
"                            OX....XXOXXX..XO..XXXOO      OOXX...XXXO                            ",
"                            O......XOX.XX..O...XXXXOOO  OXXX......XXO                           ",
"                     OO     OXXXX...XO.XX..O+..OOOOXXXOOXXX...XXX.XOXO                          ",
"                  OOOXXO   OXOOXXX..XXO...X+OOOXXX....XXOOX..XXXXXO.XXO                         ",
"                 OXXX..XOOO....OXXX.XXXOOOOO+XX.....XXXXXXOO+XXXXOX...XO       O                ",
"                  OX....XXO..XXO..XXOOOXXXXXOXX....XXXXXXXX+OOX.OX.XXX.+OOO   OXOO              ",
"                OOXOXXXXXOX.XXXXOO+OXXX.....XOX...XXXXXXXXXOXXOOXX.XXXXOXXXO+OXXXXO             ",
"               OXXXXOXXXOXX.XXXXXXO+XXXXXX...XOX...XXXXXO+OXXXXXOXXXXXOXXXXXOX....X@            ",
"              OXX...XOOO+OOOOOXX.X+OOXXXXXX..XXOXXXOOOOOXX+X.XXXX+OOOOXX..XXO......XO           ",
"              OX.....XX+OXXXXXOX.XOXXOXXXX...XX+OOOXXXXXXXOX.XX.XOXXXXX.X..XO.XX...XO           ",
"             OXXXXX..XXXOX...XXO.OX.XXOXX...XXOOXXXXXXXX..XO..X.XXOXX.XXX..XOXXXX..XO           ",
"             OXXXXXX..XOX.....XOXOX..XXOOXXOOO+XX.XXXXX..XXO....XX+OX.XX..XXOXXX...XO           ",
"             OXXXXXX..XOX..XXXXOXOX...XXXOOXXXOX.XXXX....XXOX..XXXO+OXX..XXOXXX...XXO           ",
"             OXXXXXX..XO..XXXXXXO+XX...XOXXXXXXOXXXXX..XXXO+OXXXXOXXXO..XXO+OOOOXXXXO           ",
"             OX..X....XO...XXXXX+OXXXXXOXX...XX+OOOOOXXXXOXXXOOOOXXXXXOXXOXXXXXXOXXO            ",
"             OXX.....XXOX...XXXXXXO+OOOXX....XXOXXXXXOO+OXX..XXXXXXXXXOXOXX....XXOO             ",
"              OXXXXOOOO+XX.....X.XXOXXX...X..XOXX...XXXOXX..XXXXXXXXOO+OXX......XXXO            ",
"               OOOOXXX+OOOOX..XXX.XOXX...XX.XOXX..XXXXXOXX...XXXXOOOXXXOXX..XX...XXXO           ",
"              O+XXXXXXOX...OOXXXXXO+XXXXXXX.XOX..XXXX.X+OOOXX.XOOXXXXXXOXX.XXXXX..XXXO          ",
"           OOO+OXX..XXOX..XXXO+OOO+OXXX.XXXXOX..XXXXX.XOXXXOO+OXX..XXXXXOXXXXXXX..XXXO          ",
"          OXXXXOX....XOXooXXX+OX..XXOOXX.XXXOX...XXXXXOXXXXXXOXXX.XXX.XXOXX.XXXX..XXO           ",
"         OX...XXO.....+OOooXXXOX....XXOXXXOO+X......XXOX...XXOXX..XXXX.XXOXX.X....XO            ",
"         OXX...XOX..oXO+XOXoXXOX.XXXXXXO+OXXOXX....XOOXXXX.XO+OX..XXXXXXXXOXX..XXXO             ",
"         OXXX...XOXXXOXXXXOXXXXO.XXXXXXXOXXXXOX...XOXXXXX..XOXOX..XXXXXXXXOXXXXXXO              ",
"          OXXX..XXO+OX...XXOOXXXXX....XXOXXX..O+XXOXX.X...XOXXXOX..XXXXX.XXOXXXOO+O             ",
"           OXXX..X+OX.....XX+OO+OXXXXOOOX.XX..XO+OXX.XX..XXOXXXXO..XXXXX.XXOXXOXXXO             ",
"            OXX..XOX..XXX.XXOXXXXOXOOXXX.XXX..XOOXXXXXX..XOXX..XO...XXX..XXO+OX...XO            ",
"             OXXXO+X..XX...XOX...XOXXXXXXXXX..XOXXXXXX...XOX..XXOX...X...XX+OX.....O            ",
"              O+O+OX..X...XXOXX..XOXX..XXXXX..XOXX.XX...XXOX..XXXOX.....XXXXO...X...O           ",
"              +O.XOXX.....XOXXXX..+OXX..XX...XO+OXX...XXXO+X..XXXOXX...XXXXOX..XXX..O           ",
"               O..XOXX...XXOXX.X..X+OXX.....XOXXXOXXXXXOO++X..XXXXOXXXXXXOO+X.XXXX.XO           ",
"               O..XXOXXXXXO+XX....XOXOXX..XXOXX.XXOO+OOXXO+X...XXXOXXXXOOX+OXXXXXXXX+O          ",
"              OXX..X+OOOOO+OOOX..XXOXXOOXXOOXX.XXXX+OXXXXXOXX..XXXXOO+OXXXXXOX.XXXXXO           ",
"              OXX...OXXX....XXOXXXXOXXXXOO++OXX..XXOXX..XX+OX..XXOOXXO+X..XXOXX..XXO            ",
"              OXXX..OXXXX....XXOXXOXX..XXXOXXOXXX.XOX..XXX+OXX..OXX..XOXX..X+OOOXXO             ",
"             OXXX...+OXXXXX...XOXOXX....XXOXXXOOXXXOXX.XXXOXOXXXOX...XOXX..XO+XXOO              ",
"            OXXX....O+O.XXX...XOOXX...XXXOXXXXXXOOO+OX..XXOXXOXOXX.X.XOXXXXOXXXXXXO             ",
"            OXXX..OOXXXO.XX..XO++XX..XXXXOXX...XXXXOOXX.XXOXXXO+X..X.XOXXXOXXX...XXO            ",
"            OXX..OX...XXOX...XOXO+XX..XXXXOX..X..XXXOXXXXOXX.XXO..XXXOXXXXOXX.....XXO           ",
"            OXX..OXX...XOX..XXOXXOOXX...XXOXX.XXX..XXOXXOXX..XOX.XXXO+XXXXOX..XX...XXO          ",
"             OX.XOXXX..XO.XXOOX...XOXXXXXOXOXX.XXX..XX+OXX..XOX..XXO+OOXXOXX.XXXX..XXO          ",
"             +OOO+XXX..O+O+OXXO....XOXXXOX.XOXXX...XXXOXX..XXOXXXXOXXXXOO+XXXXXXX..XXO          ",
"             OXX+OXX..XOXXOXX.XOX..X+OXXOX..XOOXX.XXO+XX...XXOXXXOX...XX+OOOOXXXXX.XXO          ",
"            OXXXXXOXXXOXXXOXXXXXOO++++OO+X...XXOXXXOXXOXX...XXOOOX.....XOXXXXOOXXX.XXO          ",
"           OXX..XXXO+OX...XOXXXX.XOOXXXXO+X....XOXOXX.XOX..XXO++X...X..XOX..XXXOXXXOO           ",
"           OXXX..XX+OXX..XXXOX..XXOXX..XXOX.XX.X+OXXX.XOXXXXOXXX+.XXX..XOX....X+OOO             ",
"            OXXX..XO+X..XXXXXOXXXOX.....XOX.XXXX+OXX..XOXXOOXXXXOXXXXX..OX.XX.XO                ",
"            OXXX..O.OX...XXXX+OOOX..XXXXX+OXXOOOOXX...XO+OXXXXXXOX.XXX..OXXXXXXO                ",
"            OXX..O.XXOX..XXX.OXX...XXXXXO+OXOXXXXOOXXXO+OXX..XXOXOXXXX..XOXXXOO+                ",
"            OX..XO.XXXOX..X.XOX...XXX.XOXO+OX.....XOOO+OXX..XXO.XOX....XXOXXOXXO                ",
"             OXXO..XX.XO....XOX..XXX.XOXXXOX.......XXXOXX..XXOX.XXOX...XO+OOXXXXO               ",
"              ++..XXX.XOX..XXOX...X.XOXX.XO...XXX...XXOX....XOXXXXOXXXXOX..XXX.XXO              ",
"             OXXO..XXXO+OXXXO+XX...XOXXX.XOXXXXXXX..XXOXXXX..OXX.XXOXXOX..XXX..OOO+             ",
"            OX..XO.XXXOXXOXOXOXXXXXOXXX..X+OOXXXXXX.XO+OOOXXXXOXX.X+OOXX...X..OX.+O             ",
"           OX....O..XOXX.OXOXXO+OOOXXX...XOXXOX.XXXXOXXXXXOOXXO+OXXO+XOOX....OXXX..O            ",
"          OXX.X..XO.XOX..XO+XXXXXXXX....XOX.XXOX..XOXX...XXXOO+OXOO+XXXXOOOOO+XXXX.O            ",
"          OXXXX..XOXXOX.XXXOXXXXOXXXXXXXOX.XXXXOXXXOX.....XXOXXXXX+OOXXX....XOXXXXO             ",
"           OX.X..XOXX+O.XXXOXX.XOXXX..XXOX.XX.XXOOO+X.XX..XOXX.XXXO+XOX......XOXXXO             ",
"           OXXX..XOXXO+XXXXOXX.XOXX....XXOXX.XXXXX+OX.XXX.XOX..XXXOXXXOX.XX...OX+O              ",
"            OX..XXO+OXOXXXOXX..XOX.X....XOXX.XXXXXOOXXXXXXXO..XXXXOXXXXOXXXXX.XOO+              ",
"            OXXXXO+OXXOXXXOX...XOX.X..X.XXO..XXX.XXOXX..XXOX..XXXXOXX..XOXXXOOOXXO              ",
"           OXOXXOXXOXXXO+OX...XX+X..XX..XXO..XX..XOXOOXXXXOX..XXXOXX....XO+OX..XXO              ",
"           OX.OOXXXOXXXXOXXXXXX++XX....XXOXX.....XOX..OO+O+X..XXXOXX....XXOXXX...XO             ",
"          OX...XXXXOXXX.XO+OOOOOXOXX..XXO+XX....XO....XXO+OXXX..XOXX.....XO+XXX..XO             ",
"          O...XXX.XXOX..X+OXXX..XXOXXXXOXOOXX..XOX.....OXXXOXXXXOXX......X+OXXXX..XO            ",
"          O...XX..XXO...XOXX......XOXXO..XXOOXXXO..XXXOXX..XOXXXOXX..XX...XOX.XX..XO            ",
"          OX......OO+X..XOX..XX...X+OO.....XXO+OXXXXXXOX..XXXOOX+OX..XXX..XO+X.X..XO            ",
"          OXX...OOX+OXXXXOXXXX...XOO+..XX...X+O+OOOOXXOX..XXXXXOO+X.XXXX..O+OOXX..XO            ",
"           OXOOOX..XXOXXOXXXXX..XOXX..XXXX..OOXX...XO+OX..XX..XXXOXXXXXXX.OXXXOXX.XO            ",
"            OXXXX.XXXXO+OXXXX..XO+X..XXXXXOOX..XX...+O+OX......XXXOXXOOO+OXXXXXOXXO             ",
"             OXX..XXXXXO+XXX..XO+OXXXXXOOOXX..XXXX..OXXXOXX....XXX+OOXX+OX.XXX.OXO              ",
"             OXX..XXXX.XOXXXXOOXX+OOOOOXXOX..XXXXOOOX....OXX...XXOOXXX.XO..XX..XO               ",
"              OXX......XXOOOOXXXXOXX.XX...O...XXOXXX......OOXXXXOXXXX..OX......XXO              ",
"               OOX....XXOXX...XXOXX.XX...XO....XOXX..XXX..X+OOOOX.XX...OXX....XXO               ",
"                 OOOOOXXO....XXOOOX.XX.XXXXOX..O OO.XXXXX.+OXX.XO.....O OOXXXXOO                ",
"                      OOX..XXXO   OX.XX.XXXXOOO    OOXXXXOOX..XO OX..XO   OOOO                  ",
"                        OOO.XO     OX.XX.XOO         OOXOXX...O   OOOO                          ",
"                           OO       OOXXOO             O O...O                                  ",
"                                      OO                  OOO                                   ",
"                                                                                                ",
"                                                                                                ",
"                                                                                                ",
"                                                                                                ",
"                                                                                                ",
"                                                                                                ",
"                                                                                                ",
"                                                                                                ",
"                                                                                                "
};
