/* XPM */
static char *_09a5b9e6ddd4b88a7f71a18b89b2d77gYjMXKjQ0KHnFUfp[] = {
/* columns rows colors chars-per-pixel */
"64 64 9 1 ",
"  c None",
". c black",
"X c #4D1717",
"o c #732222",
"O c #AC3232",
"+ c #807B1C",
"@ c #B34954",
"# c #D95763",
"$ c #FBF236",
/* pixels */
"                                                                ",
"                                                                ",
"                                                                ",
"                                                                ",
"                            XXXXXXXX                            ",
"                         XXXooooooooXXX                         ",
"                       XXoooOOOOOOOOoooXX                       ",
"                      XooOOOOOOOOOOOOOOooX                      ",
"                     XoOOOOOOOOOOOOOOOOOOoX                     ",
"                    XoOOOOOO@@@@@@@@OOOOOOoX                    ",
"                   XoOOOOO@@########@@OOOOOoX                   ",
"                  XoOOOOO@############@OOOOOoX                  ",
"                  XoOOOO@##############@OOOOoX                  ",
"                 XoOOOO@################@OOOOoX                 ",
"                 XoOOO@###oX########Xo###@OOOoX                 ",
"                 XoOOO@##oOoX######XoOo##@OOOoX                 ",
"                XoOOO@##oOOoX######XoOOo##@OOOoX                ",
"                XoOOO@##oOOoX######XoOOo##@OOOoX                ",
"                XoOOO@##ooOoX######XoOoo##@OOOoX                ",
"                XoOOO@##ooOoX######XoOoo##@OOOoX                ",
"                XoOOO@##ooOoX######XoOoo##@OOOoX                ",
"                XoOOO@##ooOoX######XoOoo##@OOOoX                ",
"                XoOOO@##ooOoX######XoOoo##@OOOoX                ",
"                XoOOO@###ooX########Xoo###@OOOoX                ",
"                 XoOOO@###oX########Xo###@OOOoX                 ",
"                 XoOOO@##oX##########Xo##@OOOoX                 ",
"                 XoOOOO@################@OOOOoX                 ",
"                  XoOOO@################@OOOoX                  ",
"                  XoOOO@################@OOOoX                  ",
"                   XoOO@################@OOoX                   ",
"                  XoOOO@################@OOOoX                  ",
"                  XoOOO@################@OOOoX                  ",
"                 XoOOOO@################@OOOOoX                 ",
"                 XoOOO@##################@OOOoX                 ",
"                 XoOOO@##################@OOOoX                 ",
"                XoOOO@#++++##########++++#@OOOoX                ",
"                XoOOO@+$$$$+########+$$$$+@OOOoX                ",
"                XoOOO+.$$$$.+######+.$$$$.+OOOoX                ",
"                XoOOO+......+######+......+OOOoX                ",
"                XoOOO+$....$+######+$....$+OOOoX                ",
"                XoOOO@+$$$$+########+$$$$+@OOOoX                ",
"                XoOOO@#++++##########++++#@OOOoX                ",
"                XoOOO@####################@OOOoX                ",
"                 XoOOO@##################@OOOoX                 ",
"                 XoOOO@##################@OOOoX                 ",
"                 XoOOOO@################@OOOOoX                 ",
"                  XoOOOO@##############@OOOOoX                  ",
"                  XoOOOOO@############@OOOOOoX                  ",
"                   XoOOOOO@@########@@OOOOOoX                   ",
"                    XoOOOOOO@@@@@@@@OOOOOOoX                    ",
"                     XoOOOOOOOOOOOOOOOOOOoX                     ",
"                      XooOOOOOOOOOOOOOOooX                      ",
"                       XXoooOOOOOOOOoooXX                       ",
"                         XXXooooooooXXX                         ",
"                            XXXXXXXX                            ",
"                                                                ",
"                                                                ",
"                                                                ",
"                                                                ",
"                                                                ",
"                                                                ",
"                                                                ",
"                                                                ",
"                                                                "
};
