/* XPM */
static char *_143db94407c49459761fdce0b471121USDQ6jIrTiSm0UgF[] = {
/* columns rows colors chars-per-pixel */
"64 64 234 2 ",
"   c black",
".  c #04070D",
"X  c #040415",
"o  c #050911",
"O  c #0A0D15",
"+  c #0C0C1A",
"@  c #0E111A",
"#  c #0C1016",
"$  c #12141C",
"%  c #15151B",
"&  c #151622",
"*  c #1D1D26",
"=  c #1E1E2B",
"-  c #161828",
";  c #07183B",
":  c #1D1D33",
">  c #1E1F39",
",  c #121D3B",
"<  c #061330",
"1  c #18233A",
"2  c #0E2738",
"3  c #21212F",
"4  c #23233C",
"5  c #2B2B3C",
"6  c #252738",
"7  c #33313A",
"8  c #26241E",
"9  c #3F4034",
"0  c #0C1D43",
"q  c #0C1C4B",
"w  c #071842",
"e  c #121C4C",
"r  c #121C45",
"t  c #0E1D51",
"y  c #141E52",
"u  c #0C234C",
"i  c #0C2243",
"p  c #1C2543",
"a  c #13234D",
"s  c #1C2C4A",
"d  c #182746",
"f  c #1E314A",
"g  c #132453",
"h  c #192454",
"j  c #132A54",
"k  c #152659",
"l  c #1B265B",
"z  c #172B5A",
"x  c #1B2C5C",
"c  c #1A2953",
"v  c #182D5A",
"b  c #232443",
"n  c #242C44",
"m  c #2C2E43",
"M  c #242D4A",
"N  c #2A2C4A",
"B  c #24314C",
"V  c #2D324B",
"C  c #273146",
"Z  c #32364C",
"A  c #35374A",
"S  c #242D55",
"D  c #253352",
"F  c #2B3452",
"G  c #2C3954",
"H  c #2D3A5A",
"J  c #27355C",
"K  c #313552",
"L  c #353A53",
"P  c #3A3C53",
"I  c #343D5B",
"U  c #3A3E59",
"Y  c #353558",
"T  c #1D2F62",
"R  c #1E3164",
"E  c #222E63",
"W  c #243364",
"Q  c #2B3969",
"!  c #363C69",
"~  c #563F58",
"^  c #36415D",
"/  c #3C435D",
"(  c #3D4458",
")  c #3B4463",
"_  c #3D4864",
"`  c #374564",
"'  c #344272",
"]  c #424353",
"[  c #4A4A55",
"{  c #44455A",
"}  c #4C4C5B",
"|  c #45485B",
" . c #51515E",
".. c #5F5559",
"X. c #5E4D58",
"o. c #67585D",
"O. c #434B64",
"+. c #464B67",
"@. c #4A516B",
"#. c #535363",
"$. c #585869",
"%. c #545978",
"&. c #474C76",
"*. c #6B5A65",
"=. c #6E5A67",
"-. c #6F6165",
";. c #766969",
":. c #7B7074",
">. c #677554",
",. c #768266",
"<. c #7F8B74",
"1. c #91997A",
"2. c #575C85",
"3. c #5C6387",
"4. c #656889",
"5. c #646990",
"6. c #717492",
"7. c #6F75B1",
"8. c #7979C8",
"9. c #7D7DD2",
"0. c #8A7A94",
"q. c #7D86B3",
"w. c #7B84CB",
"e. c #7D87D2",
"r. c #8588A9",
"t. c #9595AC",
"y. c #888BBB",
"u. c #9292BD",
"i. c #9A9AB7",
"p. c #8F90B5",
"a. c #A69AA2",
"s. c #A4A4BC",
"d. c #ACACBE",
"f. c #A2A2B6",
"g. c #B3B3BE",
"h. c #9A9591",
"j. c #8B8BC4",
"k. c #8588C8",
"l. c #8D94C6",
"z. c #9393C4",
"x. c #9A9AC4",
"c. c #9494CB",
"v. c #999ACB",
"b. c #969AC6",
"n. c #828BD4",
"m. c #848AD9",
"M. c #8690DD",
"N. c #8B93DB",
"B. c #8A91D5",
"V. c #9A9AD3",
"C. c #929ADB",
"Z. c #9597D5",
"A. c #9CA3CC",
"S. c #9CA3DB",
"D. c #9BA2D3",
"F. c #A5A5C4",
"G. c #ACACC3",
"H. c #A4A5CB",
"J. c #ACACCB",
"K. c #A6ABCD",
"L. c #B5B5C4",
"P. c #BBBBC6",
"I. c #B3B4CC",
"U. c #BDBDCA",
"Y. c #A2A7D4",
"T. c #A5ABD4",
"R. c #ABAED4",
"E. c #A2A6DB",
"W. c #A5ABDB",
"Q. c #AAAFDA",
"!. c #AEB2D3",
"~. c #ADB2DC",
"^. c #B3B5D4",
"/. c #B6BAD5",
"(. c #B2B6DB",
"). c #B5BADB",
"_. c #BABDDB",
"`. c #BBBDD5",
"'. c #AFB2CC",
"]. c #888DE4",
"[. c #8B93E3",
"{. c #8C94E9",
"}. c #8C96E6",
"|. c #939BE3",
" X c #949BE7",
".X c #979EF5",
"XX c #9BA2E5",
"oX c #96A1F9",
"OX c #A1A6E2",
"+X c #A5ACE3",
"@X c #AAAEE2",
"#X c #A5ADEB",
"$X c #A7ABEA",
"%X c #ADB3E3",
"&X c #ADB3EB",
"*X c #A7B1E9",
"=X c #B2B6E2",
"-X c #B5BAE3",
";X c #BABDE3",
":X c #B2B5EA",
">X c #B5BBEA",
",X c #BABEEA",
"<X c #A4ACF3",
"1X c #AEB4FF",
"2X c #AEB5F4",
"3X c #B5BCF3",
"4X c #B5BBFF",
"5X c #BABEFF",
"6X c #B3B8F8",
"7X c #BEC1DC",
"8X c #BEC2E3",
"9X c #BDC2EB",
"0X c #BEC3FF",
"qX c #BCC2F2",
"wX c #C2C2CD",
"eX c #C4C5D6",
"rX c #C2C5E4",
"tX c #C1C6EA",
"yX c #C5C9EC",
"uX c #C8CBE6",
"iX c #C1C6FF",
"pX c #C5CAFF",
"aX c #C9CEFF",
"sX c #C3C8F3",
"dX c #C6D1FF",
"fX c #CCD3FF",
"gX c #CED8FF",
"hX c #D1D6FF",
"jX c #D3DBFF",
"kX c #D8DEFF",
"lX c #D6E0FF",
"zX c #DAE3FF",
"xX c #DEE8FF",
"cX c #E1EAFF",
/* pixels */
"n L L 1 1 O & &.! ! ! S N 4 4 b 4 1 4 b : N b > 4 1 4 4 1 4 n b 4 - n : > N > > 1 b 4 4 b > - 1 b 4 b 4 b &.' ! > . M Z 1 n p , ",
"^ ) _ +.V O 4 9.8.7.% $ % * & - & & & $ @ $ O $ % & & % @ & $ & & @ & % $ $ & & $ % % @ & @ $ $ + - + .   K 8.7.Y   n O.@.) C p ",
") @.B B M @ - 9.8.5X9.e.e.e.m.m.e.m.n.M.m.e.n.M.m.m.].m.e.n.n.n.].n.w.w.].k.n.8.M.e.].[.{.].M.[.e.m.M.w./ = 9.8.Y   U ! B J F M ",
"L +.C C Y + 4 7.8.kXM.].{.].].m.{.{.M.}.n.M.[.[.[.{.B.M.[.k.M.{..X[.}.[.].{.B.}.}.}.e.n.].M.[.}.m.{.].n.7.* 9.8.Y   ) I I s D M ",
"L O./ / ` o 3 8.8.zX{.{.{.].M.}.M.}.}.}.B.|. X|. X|. X X}.}.oXC.|.N.C..X[.N.}.|.C.N.}.C.|.N.B.N.n.{.}.oX8.% 8.9.Z   S F +.J J < ",
"@.^ G +.F # 1 8.8.xX{.].{.[.B.B.}. XB.N. X|.XX|.C.XXC.XX XS.|.XXXXS.C.|. Xc.XXXXB.|. XC.Z.C.oXM.N.[.N.N.7.6 k.k.5   Q D S H I M ",
"$.( N F %.# : 8.8.jXkXdXaXfXdXdXpXfXdXfXfXaXdXdXdXdXdXfXdXfXdXgXdXpXdXpXdXdXdXdXgXdXdXgXgXdXaXdXgXaXdXdX1Xq.j.y.P   Q Y Q , D a ",
"d B G ^ G o : 8.k.N.1X4X1X4X5X5X0X0X0X0X0X0XiXpX0X0XpXpX0XaXpX0XpX0XpXpXpXpX0X0X0X0X0X0X0X0X5X5X0X0X5X4XS.l.y.j.{   H S i i , a ",
"f d V d ) O - k.k.k.j.j.u.c.Z.x.x.V.F.f.H.F.H.H.F.J.H.J.J.d.s.J.Q.J.R.s.s.s.G.J.f.F.J.H.F.A.i.s.F.V.V.V.v.c.V.c.]   ! Q c J R a ",
"^ _ @.^ S + = k.k.y.3.O.] { } { ] } [ } [ ] } $.} #.[ #.$. .} ]  .#.} $. .#.[ ] } }  .} } } } } [ } +.} +.r.x.v.P   r s J j ' D ",
"V O.4 ` B . 3 k.j.0.N A m m Z U ( Z L L { P A Y P K L Z m ^ ( L V L L A Z Z Z A N V n Z n n L L N ] Z : . 7 V.v.A   c E a T 0 r ",
"^ | @.M I O = k.j.hX{.|.D.E.OX@XE.R.$X=X!.Q.).-X&X,X=X*X=X=X).W.(.Y.!.&X^.(.=XY.%X&XQ.Q.D.T.W.S.E.E.$XW.2.+ H.A.m   W S g Q ' h ",
"/ P d I G o * j.c.zXXXS.$XE.E.Q.+X&XOXR.Q.3X:X(.^.=XW.R.:X&X%X=X-X~./.T.~.).>XQ.-X&X%X).E.W.~.#X%X*X$X$Xk.. p.F.m   l ; i x W h ",
"B +.^ / p + : j.l.zXXXXXS.OXW.W.Q.R.@X3X>X(.>X=X).-X+X=X9X9XQ.~.9X%X9X).=X9X>X%X-X%X=X%X%X<XC.W.$X+XE.W.y.X i.H.m   W ; x x x h ",
"^ / / G Y O 3 j.l.zXS.XX#XD.V.+X&X=X).=X^.E.W.3X%XsX>X-XY._.>X7XI./.=XyX!.K.9X<X9X>X,XR.Q.=X@X&X%X$XS.E.y.$ H.F.7   l u x e 0 r ",
"M ` G f U + = B.c.zXS.S.S.<X&XW.Y.3X^.Y.(.:X%X9X-X).R.^.'.I.8X9X*X=X^.!.S.;X_.E.;X).%X).%X>X3X+X~.%X@X+Xk.X H.J.5   v j l e x ; ",
"B L d U D o * l.c.xXOXOXv.&X~.*X(.~.~.v.~./.Q.9X~.8XqX~.>X8XG.,X!.(.@X#X!.'./.8X!.9X=X!.=X_.).<X*X>X~.*Xq.X F.G.m   0 k Q k z g ",
"I I f s d . = l.Z.zX#X<XS.W.Q.3X>X%XW.&X9X:X=X!.,XrX).9X9X7X=X).!.T.-XyXD.tX8X3X-X~.T.~._.;X).-X>X:XW.(.u.X f.G.4   Q x t l h ; ",
"I B f H ! O = Z.Z.lXv.C.T.&XQ.!.&X+X,X=X=X=X).9X-X;X!._.7X_.7XQ.yXyX8X_.~.8XtXJ.9XS.=X9X_.=X=X-X~.:X@X+Xz.X t.J.5   l Q k h ; ; ",
"F ^ M G ^ $ 3 j.b.zX+XW.&XW.:X%XQ./.,XtX3X8X/.).-X8X(.Q.8X9X9XuX7X7XyXyX9XrX).uX(.>X=X,X%X$X-X-X,X:X=X@Xv.X s.'.n   h y E g z h ",
"D I ` U %.% = u.z.zX$XE.~.%X&X~.%X=X^.9XE.9X9X8X).7X_.;XrXuXtX9X8XrXqXQ.R.8X^.Y.;X9X9X^.~.(.).R.-X~.Q.Q.y.X s.R.4   k u w g y q ",
"b M D H s . * j.v.xXOX+XQ.S.E.!.%X%X@X%X(.9X^.8X,X8X;XyXrX_._._.8X_._.>X_.,XqX8X7X_.,X!.%X~.~.~.%X:X$XW.7.5 J.R.m   t w g z q y ",
"_ 1 H _ @.O 3 c.c.kXkXgXgXdXhXfXdXgXaXgXhXgXgXgXjXjXkXkXkXlXkXlXjXkXlXjXkXkXkXkXjXjXjXgXfXhXfXgXhXgXhXgX4Xf.'.G.]   z g k w g y ",
"@.f G p d $ = z.u.S.0X0XpXpXpXiXaXhXaXfXjXgXjXgXaXdXfXdX0XhXaXaXfXjXiX0XpXaXfXfXfXfX0XhXaXaXhXhXaXdXaXaX).'.G.J.}   W R z g 0 ; ",
"^ _ ^ f D O * j.v.v.i.H.F.J.L.i.g.U.U.U.g.L.d.P.L.d.g.g.d.wXU.s.L.U.wXI.G.U.eXL.L.wXU.eXwXwXwX`.g.U.L.I.L.J.G.G. .  x y g u x a ",
"^ V _ D s O 1 z.z.v.4. .} }  .[  .$.$. . .#. . .}  .#.{ ] ( P $.#.P [ $.[ P { #.$.} #. . .}  . .} [  . .%.t.F.F.P   E k Q g g x ",
"G ) d ! I O = Z.z.z.6 ( Z } V 1 C V A m V ^ L L L n m b n V L N L N n Z L F P K V Z K P F V P { m n 1 b . 7 G.G.5   r z W Q y e ",
") B D 2 O.o = z.u.jXOXE.E.W.~.(.&X>XH.T.:X).eX)./.).rXsX9X).,X!.uX,XQ._.^.eX_.^.Q.T.~.^.%XW.Q.=X1X4X1X1X%.O s.F.A   w k z q a r ",
"Y ^ / %.B @ 3 z.c.zXS.+XE.S.%X%X>X!.-XT.~.~.8X9X9X/.=X_.>X8X-X'.8X!.;XtX=XrX#X#X(.2XC.<X2X6X&XH.& 6 *  Xw.X t.F.m   u g T R k ; ",
"Z ^ , ` +.O * z.c.zX+X+XT.@XOXQ.:XK.>X-X;X/.>X_.=X9X8X(./.9X8X>X;X-XF.(.v.rX:X8Xy.1XkXkXkXcXkXkXkXzX&.Z.w.X H.H.5   j w R W W w ",
"G B s G s o = j.z.zXE.XXE.*XT.Q.:X%X).).9X:XQ.9X9X7X7X9X9X,X-X/.).;XQ.;XQ.;XtX).Q.2.8.]..X4X1X5X0XiX7.B.k.+ F.H.5   0 x E t T g ",
"O.^ S H I o 3 u.b.xXE.S.<XW.:X%X).).;X-X9X>X,XrX&X8X_.8X-XeX8X+X=XeX/.tX,X=X=XtX,X;Xr.0.&.) Y Y $ Y . Z.n.+ F.F.m   x q q z T < ",
"G J B s J $ * y.u.zXOXW.+X@XD.W.,X%X-X9X9X0X-XQ.~.9X).7X/.H.yX,X8XyX!.,X/.9X=X,X=XqX).>XT.&X&XE.      }.B.X s.A.m   W W ; W ' c ",
"P B d G ) # * z.v.xXE.OX+X&X2X(.-X%X/.S.^./.^.3X9XyX>X8X=X;X).R.).,X;X!.~./._.Q.*X;X(.-X(.OX=XD.      ].k.+ s.F.m   c Q j x l w ",
"_ O.O.^ ) $ * z.v.zXC.E.Q. X%X).-X(.>X2X~.~.!.8X,X,X8XrXuX_.@X(.=XuX-XqXrX,X~.T.>X-XQ.-X=X~.(.l.      m.m.+ H.H.A   J c g k z a ",
"F s G D S o = z.z.zXOXOXQ.(.Q.@X(.&X>X~.9X;X-X@XrX)./.!.yX).rXR.D.%X_.7X8X;XT.-X=X%X&XQ.@XR.@Xy.      m.8.X s.s.5   E u g i a h ",
"1 d B D Y O * b.v.xX+XW.2X%X%X%X9XA.T.>XQ.-X,XtX).9X0X~.tX;X_._.yXA.^.>X,X(.A.,XQ./.>X).OX:X:XD.      ].n.O f.H.>   c W T g W 0 ",
"/ I ^ ^ d O = c.z.cX|.OXS.H.:X(.>XqX>X,X:X_.Q.eX_.^.^.^.7XyX&X~.).>XrX%XtX>X!.8X~.Q.).(.,X~.%X=X6.2.2.C.k.6 F.f.5   w ; a i g , ",
"_ F d H I $ * u.z.kXzXjXfXhXfXgXjXfXgXjXzXjXjXkXgXzXjXjXjXzXzXkXzXkXkXkXkXjXkXgXjXjXjXjXkXgXdXgXhXjXfXgX4Xt.J.H.m   g W T j g r ",
"O.G ` d c O * z.V.E.5XiXpXpXaXaXpXfXgXdXhXhXpXpXfXdXjXgXaXhXhXhXdXpXaXpXfXjXiXgXhXaXhXfXfXfXaXaXaXaXpXpX(.F.H.W.}   k r T J q q ",
") K J H J # = z.Z.V.H.H.R.d.L.I.g.P.g.g.P.g.P.eXU.U.s.L.wXI.I.U.s.L.eXL.L.G.L.eXeXg.wXwXP.P.L.L.L.I.G.J.G.s.F.J. .  W 0 S T Q q ",
"K G F I M # = z.V.b.4.} } } }  . .#.[ [ [ } } $.} } } [ } A P [ [ $.} {  .#.#.[ #.} }  . . .$.$.} [ } #.#.t.H.R.]   a u T u S i ",
"H d ^ ) F . = Z.v.z.Z | P Z P L Z ] C ( n 4 m b b L { Y V ] F S N P Y Z A F 1 B P n Z { N B M K Z K M 4 X 7 F.F.m   k d g u k ; ",
"_ s M d D O * j.b.lXXXS.@X3XQ.:XA.!.=X2XW./.>X).,XrX-X%X+X^.^.Q.,X9X>X-X!.@XyXyX(.,X(.(.~.).#XD.T.~.%XK.4.+ s.F.m   q R i c ! i ",
"G B 0 +.c O * u.v.xXS.&XW.~.~.Q.@XQ.T.~.).).rX).).,XrXyX,XrX%X=X(.;X-X8X;X~.).8X;X_.9X>X(.-X+X%XW.$XE.~.q.. i.s.m   l T a z g ; ",
"V n &.F I O = z.v.xX+XE.W.%X+X&X:X-X=X;X8X9XqX9X`.:XQ.:X8X`.:XtX9XA.:X,X(.%X(.8XrX,X,X-X).:XE.).>X~.*X#X7.X f.F.m   k u v ! Q S ",
"f 2 d F F X = c.z.xX+XQ.&X%X=X-X).b.A.=X3X(.7X8X;XrX9XtX,X_.^.9XR.>X%X(.:XsX%XyX).).I._.9X9X3X9XD.@XW.W.q.X F.!.m   g x ; q u e ",
"_ +.^ 1 a $ = u.b.zXW.+X$XT.!.%X=X*X%X9X-X8X8X~.,XQ.;XK.-X).,X~.~.).8XS.9X;XeX=X;X>X,X_.,X_.).=XR.Q.=X@Xy.X f.G.A   z g t j k h ",
"M s H _ f O = Z.b.cX<XV.E.%X%XQ.!.8X!.7XW.rXrX7XK.=X7X9X=X^.,X9XsX,XK.-XeX8XuX;X9X:X^.9X).7X~.%X=X-X:X&Xb.X F.G.6   x Q x u j q ",
"` ^ D d d o = z.v.zX|.2X&X:X=X$X:X(.=X^.-X).7XW./.~.~.9X8XtXJ.R.rX~.~.8XyX/.rXrX^._.>X~.;X=X=X+XE.-X>X%Xr.X s.J.m   k t i g x ; ",
") s M s f O 3 c.u.zXE.*X&XQ.@X+X~.>X9X~.8X9XdX9XrX8XyX/.;XrXtX/.eX;X/.8X,XtXuXtX).=X_.).;X).=X).+XQ.-X>Xl.X f.d.A   T u u g ' t ",
"O.` I D H @ = z.x.xXW.XX+X3XQ.>X>XW.:X8X8XK.'.7X=X,X9X7X;XeX7X).uX(.E.%X^._.tX>X!.!.yX~./.9X~./.=X:X&X,Xq.X d.G.4   u j R h y w ",
"B p d 0 p o 3 c.v.cX@X X+X=X=X:X=X,X~.,X,X=X=XrX9XA.7X).uXeXuXyXK.yXtX)./.7X_.=X~.yX8X~.-X~.:X-XQ.~.=X:Xk.X f.d.m   j u u e W q ",
"/ G D s s O 3 z.V.cX<XOX*X XF.(.-XT.7X9X7XT.T.rX,X).3X8X).uXyXtXuX_.rXyX-X,XyXtX=X).8X>XQ.T.7X_.,XQ.Q.-Xr.5 '.L.5   T R g x t ; ",
"V , ^ _ I O : c.z.kXjXfXdXfXgXgXhXjXkXhXkXjXjXaXgXjXzXzXjXfXjXhXxXxXkXkXzXjXzXkXjXkXlXkXkXdXjXhXgXgXdXjX0Xp.I.J.P   t i T z g w ",
"f ^ d s J O : u.u.E.5XpXaXpXaXfXhXfXfXhXfXgXpXjXjXdXaXgXhXfXpXhXhXaXhXgX5XhXfXaXfXpXgXgXaXfXhXgXfXaXfXaX,XI.G.G.[   k t g x g ; ",
"/ _ p H d O : u.x.v.i.Y.J.J.G.I.L.P.wXP.g.wXU.wXG.wXd.eXs.L.i.d.f.s.eXf.L.F.P.L.L.d.wX7Xg.wXL.wXP.P.P./.I.L.G.J.}   E g ; T u W ",
"f _ G D O.$ 3 c.u.i.4.#.#. .$.[ }  . .#.] ] [  .$.} } $.( ] #.( } { #.{ #.{ ]  .( #.} [  .]  .} } $.} } %.r.G.I.]   x x W < q a ",
"G 6 ; C F O = c.u.b.6 V ] U ] P A ( L L m ( n L B U V L b V V n K P M Z > b m P V , n I 1 Z V V V Z N 5 . 6 J.G.>   g g y T l w ",
"f / F &.H @ 3 j.v.hXE.+XE.&X:X@X~.*X!.;XrX8X~.*X+XrXtX).T.;X3XW.;X9X_._.>X,X-X%XqXj.Q.-XW.!.Q.Q.@XW.R.Q.4.O G.G.4   a u w u E r ",
"^ / ^ H 2 X = u.z.cX<XQ.E.&X:X=XK.).>X>X,X,X3X8X;XrX).T.~.7X7XD.,X_.'.,XK.rX(.8X~.%X).,X,X3X&XE.%XS.(.(.u.+ G.G.5   u k w T g y ",
"^ ^ H D I # : c.v.zXY.Q.&XOXY.=X&X_.).=X(.>X).rX%X~.qX9X=XE.>X%X;X;XtXrXS.T.yXD.-XW.K.%X=XQ.W.R.(.E.%X&X6.= G.F.}   x W W y T q ",
"D G G ` ) # 4 z.u.2X7.4.5.4.4.2.6.6.q.4.3.6.3.%.2.6.%.5.3.5.2.2.4.4.6.4.2.2.5.3.4.6.%.4.5.3.3.2.2.%.%.%.- { G.'. .  g W v i W ; ",
",.<.1.1.1.9 7 0.0.t.0.;.-.-.-.o.;.;.-.-.;.;.=.*.*.:.o.-.-.=.-.X.X.o.=.;.=.[ -.-.;.;.*.X.:.=.-.:.=.-.:.;.:.h.a.a...8 ,.,.>.>.,.;."
};
