/* XPM */
static char *_deac92c3a1e4fac8017c01b4135ae9aAC80eTbk9HjBU3pR[] = {
/* columns rows colors chars-per-pixel */
"64 64 46 1 ",
"  c #6C6E6D",
". c #6D716E",
"X c #6F7270",
"o c #717572",
"O c #757976",
"+ c #777B78",
"@ c #797D7A",
"# c #7D817E",
"$ c #80837F",
"% c #7F8380",
"& c #818582",
"* c #858A86",
"= c #888C87",
"- c #878D88",
"; c #898E89",
": c #8D938D",
"> c #90958F",
", c #8F9690",
"< c #919791",
"1 c #949A94",
"2 c #989D97",
"3 c #979E98",
"4 c #999F98",
"5 c #9CA29C",
"6 c #A0A59F",
"7 c #9FA7A0",
"8 c #A1A7A0",
"9 c #A4AAA3",
"0 c #A8ADA7",
"q c #AAAFA8",
"w c #A7B0A8",
"e c #ACB2AB",
"r c #AFB8AF",
"t c #B1B5AE",
"y c #AFB9B0",
"u c #B3B7B0",
"i c #B5BAB3",
"p c #B9BEB6",
"a c #BBBFB8",
"s c #B8C0B7",
"d c #BDC2BA",
"f c #C1C5BE",
"g c #C4C7C0",
"h c #C5C9C2",
"j c #C9CDC5",
"k c #CCCFC8",
/* pixels */
"<<<:<:---18o*ii<;9i4.@oO893::;;:9y,@X75*9<+05<<1111<66qqo 60:>>>",
"<<<,:::--4u$X<de3iqOXoX<0<::---7r1%@o<<<6o1t2<<<1<1549qo. 2i>><<",
"<::::::*-6i#oX5iuq@XooX85;;;--5w,#@++%,<@o;q<:><1248t6Oo. >d61<1",
"<:;:78886ueXoXX50@ X.. 17<,:353&@%@@@oOXX &82><14802O$oo. #du1<<",
"1::wfaadai2XXX.+@X.X.. O55<<1;%+,71;-#XX.X.+*><1<$@XX$oo...<ai5<",
",5id<..O:*..XXXXXXXoOooX.+%%++o<97<,,-X.XX oO#=:=*$@O+OX .. ;pa9",
"edu@... Xoo.XX..o&24741;+X+@@o&0w<,<,3%.X &20q0ipddi6@O... ..Oup",
"2:...@:0r98:O..#496411331%@@oo9i7,<<<97X <e051<2<15qu6O  .... o;",
"XXoo5sfdfsu0;..49:-:;:-*53@X.,dt,,,13eqX-a711<<<1<114u2....XO<1&",
"qeriisr5115e:.o95:::::,;:t@ Xqg1,,114eeOp83<<<1<<<<<11u8..o@qhgd",
"1556655:115t*.+q7:,::,::-q- oai,,1113y93a41,<11<1111112i*XO3p924",
">><>>:,1<24r;.#e9:,,,:;;-e1X@aq:,1113i,yu3<,1<11111<1218qo#it:,:",
">>1::,,,,5159.@uw:,,,:;;-t1 -d7,,1117i%a83<,<11211111135uO*g5<::",
"1111:,11,<15eOOie::,,:,;;e, 1a3,11117yop41<;:1<111<11115uO<d2::<",
"1111,5,,5:<5i#.de;:,,:,-<w% 7p<,,111e7ou31<,:,122<111,19u%4g1<<<",
"111:,,15<,<5d#.ji;,,,:,;37X#eu,<1,13a<@i3<<,:,<<12111,1ei@3f4<<<",
":111,,111><5jo@hi:>::,::7<o793<<1<<7d&*u5<>:<<<1<111<<<ai@:a5><>",
"11<1<11<1>19d <fu><:>:;:8%,93,,,<1<qd.-d4<:><<<<<<<<<<wd0.$i5<<<",
":111,1<1>>>e9o6ht:>::::55o77,,,,<11a, %i8<:;::>><1<1>6atXo$t8<<<",
"1:1:<,1,>>2p4Oqh5:::::18@%91:,,,<10io.X<u5::><111<129i5O.o@w9<<<",
"<<:>,<<<><6f$o6f1::>->9- *8::>>>11d5...X5e05412455wt6@ ..oO<e:<<",
"<,,:,<1<>2ii.X6i1;:16q*. 33,>;;<17iooX..X:1656680w9&... ..Oo95<<",
":,>><<,<4ih$.o2qt00q8= .%6,,:::24e#ooX.XXXoO#OO@o..... ...Xo:75:",
"2:>>>25wdf>.o.X$21>&oo.o,4;;,<45q9ooooX..XOOoooXo.ooo......oX:8<",
"it66eidfe=XXX...   .XXXO>2::125tuOoO%wrwuiq6-.oo.ooooo+#O X.XX<6",
">wisiyt1# XXX......oOXXX>21146u0OOo,ghpewufffd1##+Oo+-5er<oXXXo<",
"XOOOo...X.XOO.XO@&0e5=OX&11quq=ooo9fi84451559ue*##-26rwwru4oXXoo",
"XXX .$<669wey5@:0tdffu>ooO#>=ooo#tde8434521114i>+#9su511<5q&oXXX",
"XXo#wkfkfswese$2pp52uaqOooooooo;si851141<12129i##wdu2<11<288ooX.",
"oX$dkss96651ww;<fu>>>6p=Xooooo&di852121121126a0O9fw1,,,,<<5t%oXX",
"o#efsw6251119w-:j0>>>>2u>ooooo8f952114122156eh:<he5><,:<<:28<OXX",
"o=df9552221:wr$$fq>>>>22u&ooX@gu521111111469si#fi51><<,:::<55oXX",
"O5hr81221:;-ttO$de1;;>129eOoo2f63<11115<4460d<td64>>1<:::::55XX.",
"o9jr521<:::4iq.@iq1;;:>12u6OO6p41,<12111448t0@ht51<<<<::::<66O.X",
"O9hi51<1115et$.@t01>:::<12i*O4t2<<<1<515260e&;f05<<<<<<:::165X.X",
"o-sh555586tt=.o@f61>:;:;1156@;p2<:<211<546u;o8f8<<<<:<::<15e#XXX",
"++7iueete91O ..$f6>>:;:>>226>Oie1,:515154qe  es9<<<,:::<<56eXX.o",
"++:9864;$o...  ;f21>:>:;;>226o>pw,:11<5,5a:  wa95<,::::116i$XXXO",
"-@+O..    .... 0t51>>;>;:;222OO6yw1,1,,1ta...5ae52::,:<15s*..oO@",
"etrr88iat5* . .dq1>:>;>;:>>262OO5u55,,<5s@ ..;iiw55:,<<6i;..#169",
"1145669qt091..of01>;:>:;;>>25e$@#5w6<:588.....1ei651119u;..X<522",
";:<144441>191 1p5::;;;::>:;>662O.#we5;3w#.;51@ -trew0w5$...O6;**",
"::::><<>>;>e9.9a1::;:;;:>:>;666o#o#9u,91 ;t146;$O:51;O.....@0<;;",
":<>:::>:>;4p0.9p2;:><<1<>:;:;u>=85@$598O#i4;:5tt065:X..@:@.#e5::",
"111,:>::>>0p2.1qq62225221;=$6t$iaii;&>:.>u>;::<46weuw555:$.#u9<1",
"111<::<:>6iqo.X10e9tqqq662>;6;is22ti#o.o<u::;:><1<<155>;2$ #iw11",
"51<<:,:,6ii$ ...oo.o@$20t66e:6f9--9i5  .=t2=;-:1<11<<<:>6#.#sw51",
"5,<<<,<<ef;............o$0t2.p0::-wr; . o48>;;;<111<>165<X.#de51",
",11:,:,5d>...+;577311###### #s1::>t5..   #55869ww0q99961o..5f611",
"1,<,<<1erOX#<6597s777w7:#   59::105o.:::-*$-$$&-;;*>>*Oo.ooqp<12",
":<1559we4@2555,;$$$$::171#  s21156oo5w6wwww61@.....XOoooo.o9e5>>",
"ewwrut55>961;;;-:$1:::$13# #s41$6>O6w655559we9>..XXXoOoo.o.;5w90",
"66<**.o595:**-**$:::::::37 #r5>36&9t555552555q4@XXO#=#Oo... @;<1",
"ooXo.#21%*%*****::,,,:::3w# wr49:9q655<<><:,50:..@5q65q9&ooooooo",
"$$#oo-2<***-**-;$1:,:,::3w# 1sw#:t6551<:,,<56e$.X5w11126q$oo.oOO",
"wetq#O269,;;;*-:::,,,,,;17###3$#096411<<:,,5q0o.#u5<111284..oo*<",
"17ws7##$7w7,;$::::,:,,::15#XoooOq951<<<<>146u1. w911:,,12q*.X;8>",
"$$$5s3# ##55::::::,,,,;;51 Xoooo586<><>><159f*.&s511:,,,195X%e1=",
">$$1rs# #X:91:;::::,,:;,5#.####O:0052<>:116tf .q95111<,,488o06;;",
"1<$$1s##.X#w7;:;;;:,,,57:.#9995,O4it62:<159a9 Oi5111<<,,102;q;::",
"<1>$,sw# ##79,:$;:::5775#o75::,5O+5us8,:24qf$.iw51111<1,4e=89;>>",
"1$><$7s$# #3w7,,;;:5w7:#X-w:,::59:o:wu1<46ppX9t65111<1<55q+e4;:>",
"1,<,,$7w:###ww,,;*1w9*%##w5;,:::we@.<r5<5tf$6d651511<<258<Op>::<",
">>>>3$$ww7##3s7:::ww###o;w::,::,5r5 @w7:9t;>f051111<<<585##i:::<"
};
