/* XPM */
static char *f6473def8d224a4f96b4e8d22d16d1060mFMXxq3CGVB6lkg[] = {
/* columns rows colors chars-per-pixel */
"64 64 115 2 ",
"   c None",
".  c black",
"X  c #010000",
"o  c #010101",
"O  c #020101",
"+  c #060402",
"@  c #090503",
"#  c #0A0705",
"$  c #0C0805",
"%  c #100A07",
"&  c #120B07",
"*  c #1C120C",
"=  c #1B1B1B",
"-  c #291A11",
";  c #313131",
":  c #42291C",
">  c #462C1D",
",  c #472C1D",
"<  c #472C1E",
"1  c #492D1F",
"2  c #4B2D1F",
"3  c #4D2F20",
"4  c #4F3021",
"5  c #4E3121",
"6  c #523323",
"7  c #513423",
"8  c #543423",
"9  c #563524",
"0  c #553624",
"q  c #563624",
"w  c #573625",
"e  c #583725",
"r  c #593726",
"t  c #583727",
"y  c #593727",
"u  c #5A3726",
"i  c #5A3825",
"p  c #593827",
"a  c #5B3926",
"s  c #5C3926",
"d  c #5C3A27",
"f  c #5D3A27",
"g  c #5E3A27",
"h  c #603B28",
"j  c #613C29",
"k  c #623D29",
"l  c #613E2B",
"z  c #643E2A",
"x  c #643E2B",
"c  c #643F2B",
"v  c #663F2B",
"b  c #613F2C",
"n  c #67402A",
"m  c #66402B",
"M  c #67402B",
"N  c #67422E",
"B  c #68412B",
"V  c #69412C",
"C  c #6A412C",
"Z  c #6B422C",
"A  c #6D432D",
"S  c #6D442D",
"D  c #6E452D",
"F  c #6D442E",
"G  c #6F442E",
"H  c #6E452E",
"J  c #6F452E",
"K  c #6F452F",
"L  c #71452E",
"P  c #71452F",
"I  c #71462F",
"U  c #6A4530",
"Y  c #6C4531",
"T  c #724A34",
"R  c #744C35",
"E  c #754C35",
"W  c #774D36",
"Q  c #794E37",
"!  c #7B4F39",
"~  c #7A5037",
"^  c #6E6764",
"/  c #74706E",
"(  c #777372",
")  c gray50",
"_  c #880015",
"`  c #ED1C24",
"'  c #85573E",
"]  c #8A5A40",
"[  c #8B5B41",
"{  c #915F43",
"}  c #936044",
"|  c #986547",
" . c #9F684A",
".. c #A16A4C",
"X. c #A46B4C",
"o. c #A56C4D",
"O. c #A66D4D",
"+. c #AC7250",
"@. c #AD7251",
"#. c #AE7352",
"$. c #AF7352",
"%. c #B57755",
"&. c #B67956",
"*. c #B87A57",
"=. c #B97A57",
"-. c #FFC90E",
";. c #FFF200",
":. c #908781",
">. c #938984",
",. c #A7A29F",
"<. c #99D9EA",
"1. c gray76",
"2. c #C3C3C3",
"3. c #F2F0EF",
"4. c white",
/* pixels */
"                                                                                                                                ",
"                                                                                                                                ",
"                                                          . . . . . . .                                                         ",
"                                                      . . . ) ) ; ; ; ; . .                                                     ",
"                                                    . 2.2.) ) 2.2.) ; ; ; ; .                                                   ",
"                                                  . . 2.) ) 2.2.2.2.) ) ) ; ; . .                                               ",
"                                                  . 2.2.) ) 2.) . . . . . ) ; ; . . .                                           ",
"                                                  . 2.2.) ) ) . -.-.-.-.-.. . . .                                               ",
"                                            . . . . 2.2.2.. . -.-.-.-.. . ; ; . .                                               ",
"                                          . . . . . 2.. . -.-.= = . . -.. ; ; ; . .   . . . .                                   ",
"                                          . ; . . . . -.-.= = = . ) ) . -.. ) ; ; . . . -.-.. .                                 ",
"                                        . ; ; ; ; . . . = = = . 2.2.) . -.. ) ; ; . . -.;.;.;.-..                               ",
"                                        . ) ) ) ; ; . . . = . 2.2.2.2.. -.. ) ) ; . -.;.. . . ;.-..                             ",
"                                      . ) ) ) ) ) ) ; . . . = . 2.2.2.2.. ) ) ) . . ;.;.. ) . . ;.. .                           ",
"                                      ) ) ) ) ) ) ) ) ; ; . . = . 2.2.2.2.2.2.) . -.;.. ) 2.2.. . -..                           ",
"                                    . ) ) ) ) . 2.2.) ) ; ; . . = . 2.2.2.. . . . -.;.. . . . . . . . . .                       ",
"                                    . ) 2.2.. . . 4.2.) ) ; ; . . . . . . . ) . . ;.. . ; ; ; ; ; ) . ;.;..                     ",
"                                  . . 2.2.2.. . . . 4.2.) ; ; ; . ` ` _ . ) ) . -.. . ; ; ; ) ) ) ) ) . ;.. .                   ",
"                                  . 4.2.2.. . =.I . . 4.2.) ; ; . . _ . ) ) . . . . ; ; ; ) ) ) ) 2.2.. ;.;..                   ",
"                                  . 4.2.2.. I =.=.I . . 2.) ; ; ; . _ . ) ) . . . ; ; ) ) ) ) 2.2.2.2.2.. ;..                   ",
"                                  . 4.2.2.. I I =.I =.. . ) ) ; ; . . ) ) ) ) . ; ; ; ) ) 2.2.2.2.2.2.2.. ;..                   ",
"                                . . 4.2.2.. . I =.I =.I . 2.2.) ; ; . ) ) ) ) . ; ; ) ) 2.2.2.2.2.2.2.2.. ;..                   ",
"                                . . . 4.2.2.. I =.=.=.=.. . 2.) ; ; . . ) ) ) . . . . . . 2.2.2.2.2.. . ;.;..                   ",
"                                . . . . 4.2.. I I =.I =.I . 2.) ; ; . . ) . . . . ;.;.;.;.. . . . . ;.;.;..                     ",
"                              . . . : : 4.2.. I I =.I =.=.. . 2.) ; ; . . . _ _ . . . . . ;.;.;.;.;.;.. .                       ",
"                              . . . : I . . . I I =.=.I =.=.. . ) ; ; . . . . _ _ _ _ _ . . . . . . .                           ",
"                                . . : I I . . I I I =.I I =.. . ) ) ; . . 2.. . _ _ _ _ ` ` . 2.) ) .                           ",
"                                . : : I I I =.=.I I =.I I =.=.. . ) ; ; . ) 2.. . . . ` ` . . 2.2.. .                           ",
"                                . . : =.I I I =.I I =.=.I I =.I . ) ) ; . . . 2.2.) ) . . . 2.2.. . .                           ",
"                                . . : $.J I I =.I I I =.I I I =.. . ) . . . . . . . . . 2.2.. . 2.) .                           ",
"                                . . : o.V A J =.=.I I I =.I I =.=.. ) ; . . ) ) . ) ) 2.2.. . . . . .                           ",
"                                  . : | c c n J =.I I I =.=.I I =.I . ; . . 2.) . . . . . . . I I I I .                         ",
"                                . . : : ' d j B =.=.I I I =.I I =.=.. ) ; . 2.) . ; ) . . I I . . . . . . . .                   ",
"                                . . : : ! ~ 8 s V =.I I I I =.I I =.. ) ; . 2.. . ; ) . I I . . 2.2.2.2.) ) ; . .               ",
"                                  . . : d Q w u j $.I I I I =.=.I =.. . ) ; . . . . . I . . 2.2.2.2.2.2.2.) ; ; ; .             ",
"                                  . . : : U R d s  .%.I . . I =.I =.. . ) ; . . . . I . ; ) 2.2.2.2.2.2.2.) ) ) ; .             ",
"                                    . . : w Y * & n #.&.. 4.. . I I . ) ) ; . . . . . ; ; ; ) 2.2.2.2.2.2.2.) ) ; .             ",
"                                      . . . - :.# @ I =.. 2.2.. . . . ) ) ) . . . . _ . . ; ; ) 2.2.2.2.2.2.2.. . .             ",
"                                      . . . . >./ . I =.=.. . 2.2.) ) ) . ) ; . . _ _ _ . . ; ) ) ) 2.2.2.. . ) ; . .           ",
"                                  . . . . 3.,.^ ( . I I =.I . . . ) . . . ) ; . . _ _ _ _ . . . ) ) 2.2.. . 2.2.) ; .           ",
"                                . . 4.. . . 2.2.. . I I =.I I I . . . . . ) ; . . . _ _ ` ` . . . . . . 2.2.2.2.2.) ; .         ",
"                            . . 4.<.<.<.. . . . . =.I I =.=.I I =.I . . . ) ) . . . _ ` ` ` . . ; ; ) 2.2.2.2.2.2.) . -..       ",
"                        . . 4.<.<.<.4.4.4.. . . I =.=.I I =.I I =.. . . ) ) ) ; . . _ . . . . . ; ; ) ) 2.2.2.. . . -.. .       ",
"                      . . 4.<.<.4.4.4.4.. . . : : I =.J I I =.I I . . ) ) ) . . .   . . ; ; ; . . . . . . . . ;.-.-.. .         ",
"                  . . 4.<.<.4.4.4.4.. .   . . . : I %.%.A I =.=.. . . ) . . . . .   . ) ; ; ; ; . ;.;.-.-.-.-.. . .             ",
"                . 4.<.<.4.4.4.4.. .         . . : I J o.V J I =.. . ) ) . I I . .   . 2.) ) ; ; ; . . . . . . .                 ",
"            . . 4.<.<.4.4.4.. .             . . . . I V } c N A . . ) . . =.I . . . . 2.2.) ) ; . ) ; ; . . . . .               ",
"        . . 4.<.<.4.4.4.. .                   . . . . . X.[ h n . :.) . I =.I I . . . . 2.2.) ; . ) ) ) ; ; ; ; . .             ",
"    . . 4.<.<.4.4.4.. .                       . . 4.) . . ..u s % . ) . I =.=.I . .   . . 2.) . . 2.2.) ) ; ; ; . .             ",
"    . <.<.4.4.4.. .                             . . 2.2.. . { 8 s + ) . . I =.I . . .     . . . 2.2.2.2.) ) . . .               ",
"  . <.4.4.4.. .                                 . . 2.2.2.. o.T w % . ) . I =.=.I . .     . . ) 2.2.2.2.2.. . =.=..             ",
"  . 4.. . .                                       . . . 2.. . R 6 j J . . . I =.I . . .   . . ) ) 2.2.2.. I I =.=..             ",
". . .                                             . . . . $ . w j d J J . . I =.I I . .     . . ) 2.2.2.. I I I =.. .           ",
"                                                    . . . . . . 7 U d V $.J I I =.I . .       . ) ) 2.2.. : I I =.=..           ",
"                                                    . . : . . . 3 t N w ] &.I I =.I . .         . ) ) ) . : : I I =..           ",
"                                                      . . . : . > > d 2 4 =.=.I I =..           . . ) ) . . : : I I . .         ",
"                                                        . . . : 1 > R b 4 I =.I I =..             . . . .   . : I =.=..         ",
"                                                    . . . . . . : : : : j I =.=.I . .                         . : I =.=..       ",
"                                                  . . . . . . . . . . : : : I =.=.. .                         . : I I =.=..     ",
"                                              . . . . . . . . . . . . . . : : I =.. .                         . : : I I =.. .   ",
"                                                . . . . . . .         . . . . . . .                     . . . . : : I I =.=..   ",
"                                                                          . . . . .                   . : : : : : : : I =.. .   ",
"                                                                                                      . . : : : : . . . . .     ",
"                                                                                                          . . . . .             "
};
